<svg width="24px" height="24px" viewBox="0 0 24 24" version="1.1" xmlns="http://www.w3.org/2000/svg" xmlns:xlink="http://www.w3.org/1999/xlink">
    <g class="icon_svg-fill_as_stroke" stroke="none" fill="#666" fill-rule="evenodd">
        <path d="M15.0352899,20 L15.0352899,13.8064419 L17.1142712,13.8064419 L17.4255221,11.3926592 L15.0352899,11.3926592 L15.0352899,9.85156554 C15.0352899,9.1527191 15.2293273,8.67649438 16.2315146,8.67649438 L17.5097169,8.67589513 L17.5097169,6.51703371 C17.2885933,6.48767041 16.5298816,6.42193258 15.647185,6.42193258 C13.8043086,6.42193258 12.5427056,7.54678652 12.5427056,9.61258427 L12.5427056,11.3926592 L10.4584509,11.3926592 L10.4584509,13.8064419 L12.5427056,13.8064419 L12.5427056,20 L4.88270262,20 C4.39509213,20 4.00000599,19.6047341 4.00000599,19.1173034 L4.00000599,4.88904869 C4.00000599,4.4014382 4.39509213,4.00629213 4.88270262,4.00629213 L19.1108974,4.00629213 C19.5983281,4.00629213 19.993594,4.4014382 19.993594,4.88904869 L19.993594,19.1173034 C19.993594,19.6047341 19.5983281,20 19.1108974,20 L15.0352899,20 Z"></path>
    </g>
</svg>