<svg width="21px" height="21px" viewBox="0 0 24 24" version="1.1" xmlns="http://www.w3.org/2000/svg" xmlns:xlink="http://www.w3.org/1999/xlink">
    <g stroke="none" fill="#329bff" fill-rule="evenodd">
        <path d="M20.25,14.3388626 C19.9783814,14.4955 19.7318899,14.7061926 19.5273952,14.9688404 L17.7662908,17.2307581 C16.7898614,16.2559226 15.2080519,16.2564142 14.232233,17.232233 C13.4142783,18.0501878 13.2816074,19.2939234 13.8342204,20.25 L7.5,20.25 C5.42893219,20.25 3.75,18.5710678 3.75,16.5 L3.75,7.5 C3.75,5.42893219 5.42893219,3.75 7.5,3.75 L16.5,3.75 C18.5710678,3.75 20.25,5.42893219 20.25,7.5 L20.25,14.3388626 Z M8,7.75 C7.58578644,7.75 7.25,8.08578644 7.25,8.5 L7.25,12.5 C7.25,12.9142136 7.58578644,13.25 8,13.25 L12,13.25 C12.4142136,13.25 12.75,12.9142136 12.75,12.5 L12.75,8.5 C12.75,8.08578644 12.4142136,7.75 12,7.75 L8,7.75 Z M14.5,9.75 L16,9.75 C16.4142136,9.75 16.75,9.41421356 16.75,9 C16.75,8.58578644 16.4142136,8.25 16,8.25 L14.5,8.25 C14.0857864,8.25 13.75,8.58578644 13.75,9 C13.75,9.41421356 14.0857864,9.75 14.5,9.75 Z M14.5,12.75 L16,12.75 C16.4142136,12.75 16.75,12.4142136 16.75,12 C16.75,11.5857864 16.4142136,11.25 16,11.25 L14.5,11.25 C14.0857864,11.25 13.75,11.5857864 13.75,12 C13.75,12.4142136 14.0857864,12.75 14.5,12.75 Z M8,16.25 L16,16.25 C16.4142136,16.25 16.75,15.9142136 16.75,15.5 C16.75,15.0857864 16.4142136,14.75 16,14.75 L8,14.75 C7.58578644,14.75 7.25,15.0857864 7.25,15.5 C7.25,15.9142136 7.58578644,16.25 8,16.25 Z" class="icon_svg-fill_as_stroke" fill="#329bff" fill-rule="nonzero"></path>
        <polyline class="icon_svg-stroke" stroke="#329bff" stroke-width="1.5" stroke-linecap="round" stroke-linejoin="round" points="16 18.9953112 18 20.9953112 21.5 16.5"></polyline>
    </g>
</svg>